<?xml version="1.0" encoding="UTF-8" standalone="no"?>
<!-- Created with Inkscape (http://www.inkscape.org/) -->

<svg
   width="8.4666624mm"
   height="8.4666672mm"
   viewBox="0 0 8.4666623 8.4666671"
   version="1.1"
   id="svg4812"
   inkscape:version="1.2.2 (732a01da63, 2022-12-09)"
   sodipodi:docname="favicon.svg"
   xml:space="preserve"
   xmlns:inkscape="http://www.inkscape.org/namespaces/inkscape"
   xmlns:sodipodi="http://sodipodi.sourceforge.net/DTD/sodipodi-0.dtd"
   xmlns="http://www.w3.org/2000/svg"
   xmlns:svg="http://www.w3.org/2000/svg"
   xmlns:rdf="http://www.w3.org/1999/02/22-rdf-syntax-ns#"
   xmlns:cc="http://creativecommons.org/ns#"
   xmlns:dc="http://purl.org/dc/elements/1.1/"><defs
     id="defs4806"><filter
       style="color-interpolation-filters:sRGB"
       inkscape:label="Greyscale"
       id="filter3931"
       x="-0.025252907"
       y="-0.03207748"
       width="1.0504826"
       height="1.0641563"><feColorMatrix
         values="0.21 0.72 0.072 0 0 0.21 0.72 0.072 0 0 0.21 0.72 0.072 0 0 0 0 0 1 0 "
         id="feColorMatrix3929" /></filter><filter
       style="color-interpolation-filters:sRGB"
       inkscape:label="Greyscale"
       id="filter3935"
       x="0"
       y="0"
       width="1"
       height="1"><feColorMatrix
         values="0.21 0.72 0.072 0 0 0.21 0.72 0.072 0 0 0.21 0.72 0.072 0 0 0 0 0 1 0 "
         id="feColorMatrix3933" /></filter><filter
       style="color-interpolation-filters:sRGB"
       inkscape:label="Greyscale"
       id="filter3939"
       x="-0.0062475079"
       y="-0.005723706"
       width="1.0125858"
       height="1.011448"><feColorMatrix
         values="0.21 0.72 0.072 0 0 0.21 0.72 0.072 0 0 0.21 0.72 0.072 0 0 0 0 0 1 0 "
         id="feColorMatrix3937" /></filter><filter
       style="color-interpolation-filters:sRGB"
       inkscape:label="Greyscale"
       id="filter3943"
       x="-0.0068304506"
       y="-0.0032995997"
       width="1.0135568"
       height="1.0050181"><feColorMatrix
         values="0.21 0.72 0.072 0 0 0.21 0.72 0.072 0 0 0.21 0.72 0.072 0 0 0 0 0 1 0 "
         id="feColorMatrix3941" /></filter><filter
       style="color-interpolation-filters:sRGB"
       inkscape:label="Greyscale"
       id="filter3947"
       x="-0.029254297"
       y="-7.7845557e-16"
       width="1.0571879"
       height="1.000806"><feColorMatrix
         values="0.21 0.72 0.072 0 0 0.21 0.72 0.072 0 0 0.21 0.72 0.072 0 0 0 0 0 1 0 "
         id="feColorMatrix3945" /></filter><filter
       style="color-interpolation-filters:sRGB"
       inkscape:label="Greyscale"
       id="filter3951"
       x="-0.019070398"
       y="-3.8145034e-05"
       width="1.0373789"
       height="1.0005194"><feColorMatrix
         values="0.21 0.72 0.072 0 0 0.21 0.72 0.072 0 0 0.21 0.72 0.072 0 0 0 0 0 1 0 "
         id="feColorMatrix3949" /></filter><filter
       style="color-interpolation-filters:sRGB"
       inkscape:label="Greyscale"
       id="filter3955"
       x="-0.016764918"
       y="-0.014204346"
       width="1.033237"
       height="1.0283931"><feColorMatrix
         values="0.21 0.72 0.072 0 0 0.21 0.72 0.072 0 0 0.21 0.72 0.072 0 0 0 0 0 1 0 "
         id="feColorMatrix3953" /></filter><filter
       style="color-interpolation-filters:sRGB"
       inkscape:label="Greyscale"
       id="filter3959"
       x="-0.023840867"
       y="-0.00013551886"
       width="1.0458583"
       height="1.0007107"><feColorMatrix
         values="0.21 0.72 0.072 0 0 0.21 0.72 0.072 0 0 0.21 0.72 0.072 0 0 0 0 0 1 0 "
         id="feColorMatrix3957" /></filter><filter
       style="color-interpolation-filters:sRGB"
       inkscape:label="Greyscale"
       id="filter3963"
       x="-0.027728701"
       y="-1.4997922e-05"
       width="1.0512652"
       height="1.000773"><feColorMatrix
         values="0.21 0.72 0.072 0 0 0.21 0.72 0.072 0 0 0.21 0.72 0.072 0 0 0 0 0 1 0 "
         id="feColorMatrix3961" /></filter><filter
       style="color-interpolation-filters:sRGB"
       inkscape:label="Greyscale"
       id="filter3967"
       x="-0.089783207"
       y="-2.1934353e-05"
       width="1.1789935"
       height="1.0001819"><feColorMatrix
         values="0.21 0.72 0.072 0 0 0.21 0.72 0.072 0 0 0.21 0.72 0.072 0 0 0 0 0 1 0 "
         id="feColorMatrix3965" /></filter><filter
       style="color-interpolation-filters:sRGB"
       inkscape:label="Greyscale"
       id="filter3971"
       x="-0.1364121"
       y="-0.00012086673"
       width="1.2776948"
       height="1.0002685"><feColorMatrix
         values="0.21 0.72 0.072 0 0 0.21 0.72 0.072 0 0 0.21 0.72 0.072 0 0 0 0 0 1 0 "
         id="feColorMatrix3969" /></filter><filter
       style="color-interpolation-filters:sRGB"
       inkscape:label="Greyscale"
       id="filter3975"
       x="-0.028874096"
       y="-4.2111649e-05"
       width="1.0603987"
       height="1.0006227"><feColorMatrix
         values="0.21 0.72 0.072 0 0 0.21 0.72 0.072 0 0 0.21 0.72 0.072 0 0 0 0 0 1 0 "
         id="feColorMatrix3973" /></filter><filter
       style="color-interpolation-filters:sRGB"
       inkscape:label="Greyscale"
       id="filter3979"
       x="-0.023656562"
       y="-6.6920024e-05"
       width="1.050023"
       height="1.0007647"><feColorMatrix
         values="0.21 0.72 0.072 0 0 0.21 0.72 0.072 0 0 0.21 0.72 0.072 0 0 0 0 0 1 0 "
         id="feColorMatrix3977" /></filter><filter
       style="color-interpolation-filters:sRGB"
       inkscape:label="Greyscale"
       id="filter3983"
       x="-0.014039139"
       y="-0.0097256936"
       width="1.0282249"
       height="1.0194151"><feColorMatrix
         values="0.21 0.72 0.072 0 0 0.21 0.72 0.072 0 0 0.21 0.72 0.072 0 0 0 0 0 1 0 "
         id="feColorMatrix3981" /></filter><filter
       style="color-interpolation-filters:sRGB"
       inkscape:label="Greyscale"
       id="filter3987"
       x="-0.013906125"
       y="-0.010174447"
       width="1.0278122"
       height="1.0203489"><feColorMatrix
         values="0.21 0.72 0.072 0 0 0.21 0.72 0.072 0 0 0.21 0.72 0.072 0 0 0 0 0 1 0 "
         id="feColorMatrix3985" /></filter><filter
       style="color-interpolation-filters:sRGB"
       inkscape:label="Greyscale"
       id="filter3991"
       x="-0.007302335"
       y="-0.001438146"
       width="1.0145818"
       height="1.0028757"><feColorMatrix
         values="0.21 0.72 0.072 0 0 0.21 0.72 0.072 0 0 0.21 0.72 0.072 0 0 0 0 0 1 0 "
         id="feColorMatrix3989" /></filter><filter
       style="color-interpolation-filters:sRGB"
       inkscape:label="Greyscale"
       id="filter3995"
       x="-0.0087082451"
       y="-0.0014032801"
       width="1.0173038"
       height="1.0028065"><feColorMatrix
         values="0.21 0.72 0.072 0 0 0.21 0.72 0.072 0 0 0.21 0.72 0.072 0 0 0 0 0 1 0 "
         id="feColorMatrix3993" /></filter><filter
       style="color-interpolation-filters:sRGB"
       inkscape:label="Greyscale"
       id="filter3999"
       x="-0.0071937786"
       y="-0.0014495937"
       width="1.0144047"
       height="1.0028993"><feColorMatrix
         values="0.21 0.72 0.072 0 0 0.21 0.72 0.072 0 0 0.21 0.72 0.072 0 0 0 0 0 1 0 "
         id="feColorMatrix3997" /></filter><filter
       style="color-interpolation-filters:sRGB"
       inkscape:label="Greyscale"
       id="filter4003"
       x="-0.084969088"
       y="-0.10069749"
       width="1.1699382"
       height="1.201395"><feColorMatrix
         values="0.21 0.72 0.072 0 0 0.21 0.72 0.072 0 0 0.21 0.72 0.072 0 0 0 0 0 1 0 "
         id="feColorMatrix4001" /></filter><filter
       style="color-interpolation-filters:sRGB"
       inkscape:label="Greyscale"
       id="filter4007"
       x="-0.04496574"
       y="-0.040643148"
       width="1.0899315"
       height="1.0812863"><feColorMatrix
         values="0.21 0.72 0.072 0 0 0.21 0.72 0.072 0 0 0.21 0.72 0.072 0 0 0 0 0 1 0 "
         id="feColorMatrix4005" /></filter><filter
       style="color-interpolation-filters:sRGB"
       inkscape:label="Blur"
       id="filter5608"
       x="-0.057527561"
       y="-0.073137157"
       width="1.1149349"
       height="1.146274"><feGaussianBlur
         stdDeviation="0.8 0.8"
         result="blur"
         id="feGaussianBlur5606" /></filter></defs><sodipodi:namedview
     id="base"
     pagecolor="#ffffff"
     bordercolor="#666666"
     borderopacity="1.0"
     inkscape:pageopacity="0.0"
     inkscape:pageshadow="2"
     inkscape:zoom="7.9195959"
     inkscape:cx="26.390235"
     inkscape:cy="32.324881"
     inkscape:document-units="mm"
     inkscape:current-layer="layer1"
     showgrid="false"
     fit-margin-top="0"
     fit-margin-left="0"
     fit-margin-right="0"
     fit-margin-bottom="0"
     inkscape:window-width="1920"
     inkscape:window-height="986"
     inkscape:window-x="-11"
     inkscape:window-y="-11"
     inkscape:window-maximized="1"
     inkscape:showpageshadow="2"
     inkscape:pagecheckerboard="0"
     inkscape:deskcolor="#d1d1d1" /><metadata
     id="metadata4809"><rdf:RDF><cc:Work
         rdf:about=""><dc:format>image/svg+xml</dc:format><dc:type
           rdf:resource="http://purl.org/dc/dcmitype/StillImage" /></cc:Work></rdf:RDF></metadata><g
     inkscape:label="Layer 1"
     inkscape:groupmode="layer"
     id="layer1"
     transform="translate(-115.92319,-21.814238)"><g
       id="g288"
       transform="matrix(0.13556156,0,0,0.13556156,100.78816,10.687962)"><path
         style="fill:none;fill-opacity:1;stroke:#ffffff;stroke-width:3;stroke-linecap:butt;stroke-linejoin:round;stroke-miterlimit:4;stroke-dasharray:none;stroke-opacity:0.96063"
         d="m 144.67866,89.923444 c -0.19459,-0.008 -0.3772,0.0941 -0.4734,0.26458 l -4.718,8.368999 -6.1604,-3.0117 c -0.3137,-0.153239 -0.6852,0.041 -0.741,0.387571 l -0.9447,5.875606 -4.268,-2.000397 c -0.3463,-0.16222 -0.7423,0.094 -0.7399,0.478527 l 0.038,5.94382 -4.3858,-1.12654 c -0.3802,-0.0977 -0.7273,0.24702 -0.6351,0.63096 l 1.0945,4.55631 -2.7792,0.10336 c -0.3241,0.0121 -0.5585,0.31653 -0.4893,0.63562 l 1.4418,6.64817 c -2.1808,-1.5907 -4.3643,-3.18148 -6.581,-4.73563 -0.08,-0.0547 -0.1723,-0.0854 -0.2682,-0.0868 v 0 c -0.1844,-0.002 -0.3534,0.10346 -0.4341,0.26923 -0.091,0.18611 -0.1159,0.34223 -0.1602,0.58291 -0.049,0.24068 -0.087,0.5406 -0.126,0.89194 -0.08,0.7026 -0.1465,1.60902 -0.1783,2.61122 -0.069,2.00442 0.01,4.38254 0.4341,6.26937 0.4261,1.88891 1.3209,3.72338 2.1905,5.17901 0.8689,1.45557 1.6777,2.4969 2.079,2.89854 0.1388,0.13836 0.3472,0.1787 0.5271,0.1018 l 1.0288,-0.43925 c 2.0382,-0.87069 3.9823,-2.21113 4.8845,-2.87114 0.4007,0.45929 0.8122,0.90295 1.2232,1.3379 5.1e-4,0.002 0,0.004 0,0.006 l -5e-4,-0.004 c 2.267,2.39912 4.5144,4.3256 4.7987,4.56251 0.3551,0.29601 2.143,1.08446 3.946,1.39578 6.9e-4,0.002 0,0.004 0,0.006 l -5e-4,-0.006 c 0.025,0.004 0.05,0.0109 0.075,0.015 1.8288,0.30174 7.865,0.99059 10.5368,1.02062 0.6252,0.007 1.428,-0.0362 2.2949,-0.10646 v 0.0362 c 0,-0.0103 0,-0.0261 0,-0.0367 2.8372,-0.23009 6.4401,-0.7737 7.4285,-1.00357 0.232,-0.0539 0.5234,-0.17747 0.847,-0.34519 v 0.002 c 5.3e-4,-8e-4 7.9e-4,-0.002 0,-0.003 1.3997,-0.72583 3.3997,-2.29237 4.0478,-2.95901 0.011,0.005 0.025,0.0126 0.036,0.0171 1.0452,0.31391 2.3271,-1.45402 2.4541,-2.01538 0.7854,-0.76419 1.6518,-1.15236 2.9719,-3.43906 0.018,-0.0315 0.032,-0.0578 0.05,-0.0889 0.2989,-4e-5 2.6861,-0.0558 2.6861,-0.0558 v 5.3e-4 a 4.7131494,5.5293337 88.069726 0 0 4.8932,-4.79365 4.7131494,5.5293337 88.069726 0 0 -5.0456,-4.5837 c 0,0 0,-5.3e-4 0,-5.3e-4 -0.1303,-1.56099 -0.1968,-1.55679 -0.3695,-2.35231 -0.1726,-0.79553 -0.8076,-2.91846 -1.6465,-4.37855 -0.5992,-1.04291 -2.3237,-3.73445 -2.9166,-4.18475 0.5707,-0.90225 -1.0279,-1.88713 -1.6143,-1.61954 L 145.00327,90.059764 c -0.091,-0.0833 -0.20751,-0.131501 -0.3302,-0.136421 z"
         id="path838-1-3-1-6-1-0-0-2-0-1"
         inkscape:connector-curvature="0" /><path
         style="fill:#008181;fill-opacity:1;stroke:none;stroke-width:0.0990609;stroke-linecap:butt;stroke-linejoin:miter;stroke-miterlimit:4;stroke-dasharray:none;stroke-opacity:1"
         d="m 167.71527,126.68603 c 0,0 -2.3896,0.0558 -2.687,0.0558 l 2.53449,-9.43354 0.58621,4.7162 z"
         id="path838-1-3-1-6-1-0-0-2"
         inkscape:connector-curvature="0"
         sodipodi:nodetypes="ccccc" /><g
         transform="matrix(0.05616048,0,0,0.05616048,353.73864,-10.713172)"
         id="g1534-5-3-1-9-3"
         style="stroke-width:9.53162;stroke-miterlimit:4;stroke-dasharray:none"><path
           sodipodi:nodetypes="cccccccccccccccccccscc"
           inkscape:connector-curvature="0"
           id="path842-7-8-4-5-1-8-2-5-0-4-7"
           d="m -3722.5428,1791.9479 c -3.4652,-0.1383 -6.7173,1.6823 -8.4292,4.7187 l -84.0095,149.0176 -109.6931,-53.6289 c -5.5858,-2.7287 -12.205,0.7341 -13.1978,6.9043 l -16.8158,104.6191 -75.9953,-35.6152 c -6.1675,-2.8888 -13.2223,1.6712 -13.1804,8.5195 l 0.6732,105.836 -78.0906,-20.0664 c -6.7694,-1.7388 -12.944,4.3997 -11.3024,11.2363 l 19.4853,81.1289 -49.4873,1.8457 c -5.7724,0.2149 -9.9459,5.6347 -8.7144,11.3164 l 27.1444,125.166 c 0.9723,4.4813 5.0349,7.5869 9.5836,7.3262 l 648.1246,-37.2617 c 4.0104,-0.2309 7.4168,-3.0358 8.437,-6.9473 l 49.5669,-189.9961 c 0.8748,-3.3555 -0.1713,-6.9226 -2.7161,-9.2617 l -285.501,-262.4238 c -1.6143,-1.4841 -3.6977,-2.346 -5.8821,-2.4336 z"
           style="color:#000000;font-style:normal;font-variant:normal;font-weight:normal;font-stretch:normal;font-size:medium;line-height:normal;font-family:sans-serif;font-variant-ligatures:normal;font-variant-position:normal;font-variant-caps:normal;font-variant-numeric:normal;font-variant-alternates:normal;font-feature-settings:normal;text-indent:0;text-align:start;text-decoration:none;text-decoration-line:none;text-decoration-style:solid;text-decoration-color:#000000;letter-spacing:normal;word-spacing:normal;text-transform:none;writing-mode:lr-tb;direction:ltr;text-orientation:mixed;dominant-baseline:auto;baseline-shift:baseline;text-anchor:start;white-space:normal;shape-padding:0;clip-rule:nonzero;display:inline;overflow:visible;visibility:visible;opacity:1;isolation:auto;mix-blend-mode:normal;color-interpolation:sRGB;color-interpolation-filters:linearRGB;solid-color:#000000;solid-opacity:1;vector-effect:none;fill:#ffff00;fill-opacity:1;fill-rule:nonzero;stroke:#000005;stroke-width:9.53162;stroke-linecap:butt;stroke-linejoin:round;stroke-miterlimit:4;stroke-dasharray:none;stroke-dashoffset:0;stroke-opacity:1;color-rendering:auto;image-rendering:auto;shape-rendering:auto;text-rendering:auto;enable-background:accumulate" /><path
           sodipodi:nodetypes="zzaacczzzzccczz"
           inkscape:connector-curvature="0"
           id="path898-0-22-5-7-6-9-2-5-2"
           d="m -3733.9893,1993.9672 c -49.4255,0.012 -16.4664,-1.0113 -79.1336,2.3373 -62.6672,3.3486 -135.6512,39.1257 -192.0121,79.375 -36.9033,26.3539 -67.0887,62.8955 -89.9583,102.0537 -23.4028,40.0711 -46.486,115.9916 -45.73,131.4886 l 45.6803,155.2641 c 48.2578,57.9773 110.799,111.4309 117.2135,116.7764 6.4145,5.3455 39.0649,19.7508 71.6282,25.1235 32.5633,5.3727 140.0492,17.6395 187.6232,18.1741 47.574,0.5346 150.2052,-14.4322 173.1904,-19.7776 22.9852,-5.3454 78.043,-48.109 89.2685,-60.9379 l 43.7012,-35.8914 c 13.5994,-89.5089 -29.1882,-440.1673 -36.3052,-430.5041 -26.7015,-21.4622 -29.0314,-25.6177 -86.865,-53.174 -57.8336,-27.5563 -148.8756,-30.3195 -198.3011,-30.3077 z"
           style="fill:#ffffff;fill-opacity:1;stroke:#000000;stroke-width:9.53162;stroke-linecap:butt;stroke-linejoin:miter;stroke-miterlimit:4;stroke-dasharray:none;stroke-opacity:1" /></g><path
         style="opacity:1;fill:#000000;fill-opacity:1;stroke:#000000;stroke-width:0.0990609;stroke-linecap:round;stroke-linejoin:miter;stroke-miterlimit:4;stroke-dasharray:none;stroke-dashoffset:0;stroke-opacity:1"
         d="m 130.89326,134.51094 c -0.3559,-0.18955 -0.4843,-0.28192 -0.9348,-0.67561 -1.1165,-0.97559 -2.5704,-2.34483 -3.5726,-3.36451 l -0.7851,-0.7986 -0.08,-0.34667 c -0.092,-0.41274 -0.1827,-0.93064 -0.2801,-1.65076 l -0.074,-0.5285 0.092,-0.0976 c -0.5276,-4.1682 -0.6138,-4.80117 -0.8414,-7.64194 -0.2193,-2.73113 -0.4332,-5.93588 -0.4917,-7.36903 l -0.028,-0.60431 0.2219,-0.35092 c 0.4081,-0.64693 0.9304,-1.48735 1.7736,-2.43682 1.2567,-1.4156 1.8572,-1.86958 2.3501,-2.29527 l 0.439,-0.3199 0.031,0.77145 c 0.047,1.1738 0.1387,3.25785 0.2463,5.31374 0.57,10.87012 1.3791,19.0617 2.2012,22.2792 0.043,0.15194 0.09,0.31256 0.086,0.31674 -0.01,0.005 -0.1772,-0.10427 -0.359,-0.20088 z"
         id="path1159-6-5-5-3-5-4-5"
         inkscape:connector-curvature="0"
         sodipodi:nodetypes="cssccscccccscccssccc" /><path
         style="fill:none;stroke:#000000;stroke-width:0.0990609;stroke-linecap:butt;stroke-linejoin:miter;stroke-miterlimit:4;stroke-dasharray:none;stroke-opacity:1"
         d="m 123.84536,111.43822 c 0,1.84643 1.0142,16.07309 1.6931,18.25519"
         id="path846-9-2-8-8-4-1-6-3"
         inkscape:connector-curvature="0"
         sodipodi:nodetypes="cc" /><path
         style="fill:none;stroke:#000000;stroke-width:0.0990609;stroke-linecap:butt;stroke-linejoin:miter;stroke-miterlimit:4;stroke-dasharray:none;stroke-opacity:1"
         d="m 128.75836,105.89114 c 0.047,2.11239 0.9412,23.22224 2.5966,28.88355"
         id="path848-3-9-7-7-1-9-6-7"
         inkscape:connector-curvature="0"
         sodipodi:nodetypes="cc" /><path
         style="color:#000000;font-style:normal;font-variant:normal;font-weight:normal;font-stretch:normal;font-size:medium;line-height:normal;font-family:sans-serif;font-variant-ligatures:normal;font-variant-position:normal;font-variant-caps:normal;font-variant-numeric:normal;font-variant-alternates:normal;font-feature-settings:normal;text-indent:0;text-align:start;text-decoration:none;text-decoration-line:none;text-decoration-style:solid;text-decoration-color:#000000;letter-spacing:normal;word-spacing:normal;text-transform:none;writing-mode:lr-tb;direction:ltr;text-orientation:mixed;dominant-baseline:auto;baseline-shift:baseline;text-anchor:start;white-space:normal;shape-padding:0;clip-rule:nonzero;display:inline;overflow:visible;visibility:visible;opacity:1;isolation:auto;mix-blend-mode:normal;color-interpolation:sRGB;color-interpolation-filters:linearRGB;solid-color:#000000;solid-opacity:1;vector-effect:none;fill:#ff0000;fill-opacity:1;fill-rule:nonzero;stroke:#000600;stroke-width:0.5353;stroke-linecap:butt;stroke-linejoin:round;stroke-miterlimit:4;stroke-dasharray:none;stroke-dashoffset:0;stroke-opacity:1;color-rendering:auto;image-rendering:auto;shape-rendering:auto;text-rendering:auto;enable-background:accumulate"
         d="m 114.07006,112.85608 c -0.1852,-0.003 -0.355,0.10265 -0.436,0.26905 -0.091,0.18611 -0.1159,0.34254 -0.1601,0.58322 -0.049,0.24068 -0.087,0.54057 -0.126,0.89191 -0.08,0.7026 -0.1465,1.60891 -0.1783,2.6111 -0.069,2.00442 0.01,4.38242 0.4337,6.26926 0.4261,1.88892 1.3213,3.72366 2.1909,5.17928 0.8689,1.45557 1.6773,2.49696 2.0786,2.8986 0.1388,0.13837 0.3473,0.17869 0.5272,0.10178 l 1.0288,-0.43961 c 2.7851,-1.18977 5.4155,-3.2694 5.4155,-3.2694 0.011,-0.008 0.021,-0.0153 0.031,-0.0232 l 4.097,-3.75726 c 0.2259,-0.20748 0.2018,-0.57123 -0.056,-0.74655 -4.9066,-3.41155 -9.664,-7.03531 -14.579,-10.48127 -0.08,-0.0549 -0.173,-0.0857 -0.2693,-0.0869 z"
         id="path984-5-6-1-7-9-5-7-3-6"
         inkscape:connector-curvature="0"
         sodipodi:nodetypes="ccsccscccccccccc" /><path
         style="fill:none;stroke:#000000;stroke-width:0.0990609;stroke-linecap:butt;stroke-linejoin:miter;stroke-miterlimit:4;stroke-dasharray:none;stroke-opacity:1"
         d="m 132.28906,103.71368 c -0.3821,4.35561 0.4246,28.00736 1.9952,31.94007"
         id="path850-6-1-0-6-0-1-9-8"
         inkscape:connector-curvature="0"
         sodipodi:nodetypes="cc" /><path
         style="fill:none;stroke:#000000;stroke-width:0.0990609;stroke-linecap:butt;stroke-linejoin:miter;stroke-miterlimit:4;stroke-dasharray:none;stroke-opacity:1"
         d="m 137.38396,101.71362 c -0.086,8.22105 1.01771,33.31863 1.7816,34.54527"
         id="path852-0-2-4-0-8-3-9-1"
         inkscape:connector-curvature="0"
         sodipodi:nodetypes="cc" /><path
         style="fill:none;stroke:#000000;stroke-width:0.0990609;stroke-linecap:butt;stroke-linejoin:miter;stroke-miterlimit:4;stroke-dasharray:none;stroke-opacity:1"
         d="m 141.45956,101.26221 c 0.047,3.01112 0.3815,33.75799 0.5516,35.24231"
         id="path854-6-7-8-4-3-1-5-3"
         inkscape:connector-curvature="0" /><path
         style="fill:none;stroke:#000000;stroke-width:0.0990609;stroke-linecap:butt;stroke-linejoin:miter;stroke-miterlimit:4;stroke-dasharray:none;stroke-opacity:1"
         d="m 147.02086,101.33442 c 0.212,2.45344 0.59471,31.26003 0.16971,35.27854"
         id="path856-2-0-0-1-5-2-2-6"
         inkscape:connector-curvature="0" /><path
         style="fill:none;stroke:#000000;stroke-width:0.0990609;stroke-linecap:butt;stroke-linejoin:miter;stroke-miterlimit:4;stroke-dasharray:none;stroke-opacity:1"
         d="m 151.90316,101.92677 c -0.2121,7.26773 -0.67939,32.28227 -1.5705,34.3105"
         id="path858-6-9-4-0-6-0-1-4"
         inkscape:connector-curvature="0" /><path
         style="fill:none;stroke:#000000;stroke-width:0.0990609;stroke-linecap:butt;stroke-linejoin:miter;stroke-miterlimit:4;stroke-dasharray:none;stroke-opacity:1"
         d="m 157.29466,104.02861 c 0.17031,4.0365 0.047,27.37452 -1.8253,31.20076"
         id="path860-1-3-2-4-5-6-3-0"
         inkscape:connector-curvature="0"
         sodipodi:nodetypes="cc" /><g
         transform="matrix(0.05616048,0,0,0.05616048,353.73864,-10.713172)"
         id="g1530-8-9-8-0-3"
         style="stroke-width:9.53162;stroke-miterlimit:4;stroke-dasharray:none"><path
           d="m -3731.0025,1699.6006 a 98.131264,84.30233 0 0 1 70.3545,95.5242 98.131264,84.30233 0 0 1 -103.5178,69.7808"
           sodipodi:open="true"
           sodipodi:end="1.6402727"
           sodipodi:start="4.984254"
           sodipodi:ry="84.30233"
           sodipodi:rx="98.131264"
           sodipodi:cy="1780.8066"
           sodipodi:cx="-3757.3535"
           sodipodi:type="arc"
           transform="matrix(0.98612128,-0.16602654,0.21426271,0.97677607,0,0)"
           id="path836-9-6-4-70-9-7-9-5"
           style="opacity:1;fill:#008181;fill-opacity:1;stroke:#000000;stroke-width:9.53738;stroke-linecap:round;stroke-linejoin:miter;stroke-miterlimit:4;stroke-dasharray:none;stroke-dashoffset:0;stroke-opacity:1"
           sodipodi:arc-type="arc" /><path
           sodipodi:nodetypes="sssscsccs"
           inkscape:connector-curvature="0"
           id="path898-0-6-9-8-0-4-9-8"
           d="m -3495.9327,2454.0753 c -31.909,-59.1546 -23.0727,-107.2635 -22.5818,-120.5181 0.4909,-13.2545 18.3164,-88.5989 56.4546,-153.409 36.9771,-62.837 48.3378,-77.8187 59.1688,-94.9443 10.9571,-17.325 -23.0418,-36.4012 -30.8744,-27.3281 -26.8976,33.0495 -120.6305,161.6879 -130.0029,290.124 -9.3724,128.4363 80.3594,187.274 106.0871,198.2439 18.6115,5.5894 41.441,-25.8962 43.7015,-35.8916 -19.6074,-0.8041 -48.9636,4.8805 -81.9529,-56.2768 z"
           style="fill:#ff0600;fill-opacity:1;stroke:#000000;stroke-width:9.53162;stroke-linecap:butt;stroke-linejoin:miter;stroke-miterlimit:4;stroke-dasharray:none;stroke-opacity:1" /><path
           sodipodi:nodetypes="cssscsssszc"
           inkscape:connector-curvature="0"
           id="path898-0-2-6-4-6-7-9-1-5"
           d="m -3413.9798,2510.352 c -19.6074,-0.8041 -48.9636,4.8805 -81.9529,-56.2768 -31.909,-59.1546 -23.0727,-107.2635 -22.5818,-120.5181 0.4909,-13.2545 18.3164,-88.5988 56.4546,-153.4089 36.9771,-62.837 48.3378,-77.8187 59.1688,-94.9443 10.5572,8.0181 41.2663,55.9469 51.9349,74.5172 14.9361,25.9985 26.2415,63.7948 29.3151,77.9601 3.0736,14.1652 4.2602,14.0981 6.5812,41.8934 1.5687,18.7865 -2.944,58.3587 -10.5807,83.0045 -7.6368,24.6459 -11.9144,45.8235 -35.4225,86.5408 -23.5081,40.7173 -38.9315,47.625 -52.9167,61.2322"
           style="fill:#0000c7;fill-opacity:1;stroke:#000000;stroke-width:9.53162;stroke-linecap:butt;stroke-linejoin:miter;stroke-miterlimit:4;stroke-dasharray:none;stroke-opacity:1" /><ellipse
           transform="matrix(0.99160046,0.12933878,-0.14838006,0.98893041,0,0)"
           ry="56.707859"
           rx="37.176434"
           cy="2702.094"
           cx="-3009.0242"
           id="path862-3-7-1-2-2-6-2-3-0"
           style="opacity:1;fill:#ffffff;fill-opacity:1;stroke:#000000;stroke-width:9.5325;stroke-linecap:round;stroke-linejoin:miter;stroke-miterlimit:4;stroke-dasharray:none;stroke-dashoffset:0;stroke-opacity:1" /><path
           sodipodi:nodetypes="ccc"
           inkscape:connector-curvature="0"
           id="path838-1-7-7-2-4-3-4-4-9"
           d="m -3312.3442,2446.5465 -47.8424,1.0027 z"
           style="fill:#2b626a;fill-opacity:1;stroke:#000000;stroke-width:9.53162;stroke-linecap:butt;stroke-linejoin:miter;stroke-miterlimit:4;stroke-dasharray:none;stroke-opacity:1" /></g><ellipse
         style="opacity:1;fill:#000000;fill-opacity:1;stroke:#000000;stroke-width:0.0954846;stroke-linecap:round;stroke-linejoin:miter;stroke-miterlimit:4;stroke-dasharray:none;stroke-dashoffset:0;stroke-opacity:1"
         id="path862-8-8-2-7-7-4-5-9"
         cx="185.95181"
         cy="83.095062"
         rx="1.7165926"
         ry="2.3461864"
         transform="matrix(0.97967132,0.20060931,-0.2223558,0.97496559,0,0)" /><path
         style="opacity:1;fill:#000000;fill-opacity:1;stroke:#000000;stroke-width:0.0990609;stroke-linecap:round;stroke-linejoin:miter;stroke-miterlimit:4;stroke-dasharray:none;stroke-dashoffset:0;stroke-opacity:1"
         d="m 138.10736,136.07542 c -0.5038,-0.0584 -1.4866,-0.18671 -2.1832,-0.26379 -0.6971,-0.0769 -1.3821,-0.19332 -1.472,-0.20482 -0.1609,-0.0207 -0.1227,-0.0267 -0.2006,-0.26495 -0.8021,-2.45811 -1.53,-10.87128 -1.8751,-21.66637 -0.117,-3.65615 -0.1418,-8.22316 -0.057,-9.66234 l 0.073,-0.32994 0.5336,-0.26229 c 0.8313,-0.40833 1.5777,-0.76144 2.4294,-1.04719 0.6698,-0.22458 1.8177,-0.6176 1.9628,-0.6176 0.053,0 0,0.31456 0.024,2.0063 0.015,1.08827 0.048,2.54013 0.07,3.22637 0.4592,14.57833 1.11941,26.63486 1.5803,28.84505 0.035,0.15115 0.08,0.35995 0.075,0.36267 -0.01,0.003 -0.44599,-0.0628 -0.95019,-0.1211 z"
         id="path1161-9-0-9-6-5-8-8"
         inkscape:connector-curvature="0"
         sodipodi:nodetypes="csscsccssscsscc" /><path
         style="opacity:1;fill:#000000;fill-opacity:1;stroke:#000000;stroke-width:0.0990609;stroke-linecap:round;stroke-linejoin:miter;stroke-miterlimit:4;stroke-dasharray:none;stroke-dashoffset:0;stroke-opacity:1"
         d="m 143.83916,136.57785 c -0.095,-0.009 -0.52589,-0.0428 -0.955,-0.0764 -0.4286,-0.0337 -0.7914,-0.0317 -0.8025,-0.043 -0.083,-0.0801 -0.2269,-8.78254 -0.4262,-24.7714 -0.047,-3.35606 -0.09,-7.04326 -0.1023,-8.19383 l -0.03,-2.1402 0.45251,-0.0333 c 0.29779,-0.0319 4.9251,0.0469 4.9584,0.0803 0.078,0.075 0.19469,5.17415 0.3001,12.82151 0.07,4.89169 0.07,18.40661 -0.01,20.19653 -0.032,0.76125 -0.069,1.54204 -0.079,1.73499 l -0.026,0.35337 -1.2645,0.0866 c -0.2399,0.0312 -1.758,0.01 -2.0324,-0.0153 z"
         id="path1163-2-5-3-1-9-5-0"
         inkscape:connector-curvature="0"
         sodipodi:nodetypes="ccsssccssccccc" /><path
         style="opacity:1;fill:#000000;fill-opacity:1;stroke:#000000;stroke-width:0.0990609;stroke-linecap:round;stroke-linejoin:miter;stroke-miterlimit:4;stroke-dasharray:none;stroke-dashoffset:0;stroke-opacity:1"
         d="m 150.46786,136.05285 c 0.021,-0.0662 0.074,-0.33344 0.1123,-0.59465 0.47951,-2.91056 0.90101,-12.94968 1.355,-32.28065 0.016,-0.61647 0.01,-1.15017 0.015,-1.15017 0.01,0 0.366,0.0718 0.5858,0.124 0.6202,0.14724 1.3958,0.38588 1.9074,0.57682 1.0553,0.3935 2.748,1.21527 2.7958,1.33862 0,0 0.029,1.40042 0.045,3.03326 l 0.028,2.96887 -0.3599,0.66283 c -1.79919,3.31279 -2.9211,6.51606 -3.3259,9.4939 -0.079,0.55632 -0.086,0.81739 -0.086,1.92999 -0.01,1.34663 0.028,1.654 0.2163,2.58997 0.36921,1.8087 1.25621,3.61711 2.44311,4.98213 l 0.24399,0.28109 -0.1191,0.94306 c -0.254,2.0134 -0.529,3.36755 -0.8232,4.05674 -0.074,0.16489 -0.1025,0.1925 -0.35089,0.30354 -0.15,0.0674 -0.37251,0.14831 -0.4938,0.18021 -0.4226,0.11113 -2.45151,0.44267 -3.55421,0.58078 -0.2683,0.0336 -0.58849,0.10872 -0.63539,0.11918 -0.08,0.0174 -0.022,-0.0299 0.013,-0.13952 z"
         id="path1165-0-5-9-5-1-7-2"
         inkscape:connector-curvature="0"
         sodipodi:nodetypes="cccssccccsccsccscccccc" /><ellipse
         style="opacity:1;fill:#ffffff;fill-opacity:1;stroke:#000000;stroke-width:0.0964734;stroke-linecap:round;stroke-linejoin:miter;stroke-miterlimit:4;stroke-dasharray:none;stroke-dashoffset:0;stroke-opacity:1"
         id="path862-3-7-4-2-2-2-0-2-3-4"
         cx="193.07004"
         cy="107.7961"
         rx="0.28384852"
         ry="0.23951292"
         transform="matrix(0.99757046,0.0696647,-0.26984573,0.96290357,0,0)" /><ellipse
         style="opacity:1;fill:#ffffff;fill-opacity:1;stroke:#000000;stroke-width:0.0957838;stroke-linecap:round;stroke-linejoin:miter;stroke-miterlimit:4;stroke-dasharray:none;stroke-dashoffset:0;stroke-opacity:1"
         id="path862-3-7-4-7-3-9-8-6-8-3-9"
         cx="186.01154"
         cy="103.24868"
         rx="0.53253764"
         ry="0.58917558"
         transform="matrix(0.99568133,0.0928369,-0.20541865,0.97867419,0,0)" /></g></g></svg>
